<mxfile host="Electron" agent="Mozilla/5.0 (Windows NT 10.0; Win64; x64) AppleWebKit/537.36 (KHTML, like Gecko) draw.io/27.0.9 Chrome/134.0.6998.205 Electron/35.4.0 Safari/537.36" version="27.0.9">
  <diagram id="sBNk2-zZ8laFnM64aaDN" name="Sales Data Mart">
    <mxGraphModel dx="2605" dy="1565" grid="1" gridSize="10" guides="1" tooltips="1" connect="1" arrows="1" fold="1" page="1" pageScale="1" pageWidth="1920" pageHeight="1200" math="0" shadow="0">
      <root>
        <mxCell id="0" />
        <mxCell id="1" parent="0" />
        <mxCell id="PkIljQjVneWHHMNf3_Rl-1" value="" style="rounded=0;whiteSpace=wrap;html=1;" vertex="1" parent="1">
          <mxGeometry x="300" y="270" width="1380" height="720" as="geometry" />
        </mxCell>
        <mxCell id="eeY0Dyzwo5bHaXrm77ZO-1" value="gold.dim_customers" style="shape=table;startSize=40;container=1;collapsible=1;childLayout=tableLayout;fixedRows=1;rowLines=0;fontStyle=1;align=center;resizeLast=1;html=1;fontSize=16;fillColor=#fff2cc;strokeColor=#d6b656;rounded=1;" parent="1" vertex="1">
          <mxGeometry x="455" y="355" width="230" height="430" as="geometry" />
        </mxCell>
        <mxCell id="eeY0Dyzwo5bHaXrm77ZO-2" value="" style="shape=tableRow;horizontal=0;startSize=0;swimlaneHead=0;swimlaneBody=0;fillColor=none;collapsible=0;dropTarget=0;points=[[0,0.5],[1,0.5]];portConstraint=eastwest;top=0;left=0;right=0;bottom=1;fontSize=16;" parent="eeY0Dyzwo5bHaXrm77ZO-1" vertex="1">
          <mxGeometry y="40" width="230" height="39" as="geometry" />
        </mxCell>
        <mxCell id="eeY0Dyzwo5bHaXrm77ZO-3" value="PK" style="shape=partialRectangle;connectable=0;fillColor=none;top=0;left=0;bottom=0;right=0;fontStyle=1;overflow=hidden;whiteSpace=wrap;html=1;fontSize=16;" parent="eeY0Dyzwo5bHaXrm77ZO-2" vertex="1">
          <mxGeometry width="30" height="39" as="geometry">
            <mxRectangle width="30" height="39" as="alternateBounds" />
          </mxGeometry>
        </mxCell>
        <mxCell id="eeY0Dyzwo5bHaXrm77ZO-4" value="&lt;span style=&quot;background-color: rgb(202, 202, 202);&quot;&gt;customer_key&lt;/span&gt;" style="shape=partialRectangle;connectable=0;fillColor=none;top=0;left=0;bottom=0;right=0;align=left;spacingLeft=6;fontStyle=5;overflow=hidden;whiteSpace=wrap;html=1;fontSize=16;" parent="eeY0Dyzwo5bHaXrm77ZO-2" vertex="1">
          <mxGeometry x="30" width="200" height="39" as="geometry">
            <mxRectangle width="200" height="39" as="alternateBounds" />
          </mxGeometry>
        </mxCell>
        <mxCell id="eeY0Dyzwo5bHaXrm77ZO-5" value="" style="shape=tableRow;horizontal=0;startSize=0;swimlaneHead=0;swimlaneBody=0;fillColor=none;collapsible=0;dropTarget=0;points=[[0,0.5],[1,0.5]];portConstraint=eastwest;top=0;left=0;right=0;bottom=0;fontSize=16;" parent="eeY0Dyzwo5bHaXrm77ZO-1" vertex="1">
          <mxGeometry y="79" width="230" height="39" as="geometry" />
        </mxCell>
        <mxCell id="eeY0Dyzwo5bHaXrm77ZO-6" value="" style="shape=partialRectangle;connectable=0;fillColor=none;top=0;left=0;bottom=0;right=0;editable=1;overflow=hidden;whiteSpace=wrap;html=1;fontSize=16;" parent="eeY0Dyzwo5bHaXrm77ZO-5" vertex="1">
          <mxGeometry width="30" height="39" as="geometry">
            <mxRectangle width="30" height="39" as="alternateBounds" />
          </mxGeometry>
        </mxCell>
        <mxCell id="eeY0Dyzwo5bHaXrm77ZO-7" value="customer_id" style="shape=partialRectangle;connectable=0;fillColor=none;top=0;left=0;bottom=0;right=0;align=left;spacingLeft=6;overflow=hidden;whiteSpace=wrap;html=1;fontSize=16;" parent="eeY0Dyzwo5bHaXrm77ZO-5" vertex="1">
          <mxGeometry x="30" width="200" height="39" as="geometry">
            <mxRectangle width="200" height="39" as="alternateBounds" />
          </mxGeometry>
        </mxCell>
        <mxCell id="eeY0Dyzwo5bHaXrm77ZO-8" value="" style="shape=tableRow;horizontal=0;startSize=0;swimlaneHead=0;swimlaneBody=0;fillColor=none;collapsible=0;dropTarget=0;points=[[0,0.5],[1,0.5]];portConstraint=eastwest;top=0;left=0;right=0;bottom=0;fontSize=16;" parent="eeY0Dyzwo5bHaXrm77ZO-1" vertex="1">
          <mxGeometry y="118" width="230" height="39" as="geometry" />
        </mxCell>
        <mxCell id="eeY0Dyzwo5bHaXrm77ZO-9" value="" style="shape=partialRectangle;connectable=0;fillColor=none;top=0;left=0;bottom=0;right=0;editable=1;overflow=hidden;whiteSpace=wrap;html=1;fontSize=16;" parent="eeY0Dyzwo5bHaXrm77ZO-8" vertex="1">
          <mxGeometry width="30" height="39" as="geometry">
            <mxRectangle width="30" height="39" as="alternateBounds" />
          </mxGeometry>
        </mxCell>
        <mxCell id="eeY0Dyzwo5bHaXrm77ZO-10" value="customer_number" style="shape=partialRectangle;connectable=0;fillColor=none;top=0;left=0;bottom=0;right=0;align=left;spacingLeft=6;overflow=hidden;whiteSpace=wrap;html=1;fontSize=16;" parent="eeY0Dyzwo5bHaXrm77ZO-8" vertex="1">
          <mxGeometry x="30" width="200" height="39" as="geometry">
            <mxRectangle width="200" height="39" as="alternateBounds" />
          </mxGeometry>
        </mxCell>
        <mxCell id="eeY0Dyzwo5bHaXrm77ZO-11" value="" style="shape=tableRow;horizontal=0;startSize=0;swimlaneHead=0;swimlaneBody=0;fillColor=none;collapsible=0;dropTarget=0;points=[[0,0.5],[1,0.5]];portConstraint=eastwest;top=0;left=0;right=0;bottom=0;fontSize=16;" parent="eeY0Dyzwo5bHaXrm77ZO-1" vertex="1">
          <mxGeometry y="157" width="230" height="39" as="geometry" />
        </mxCell>
        <mxCell id="eeY0Dyzwo5bHaXrm77ZO-12" value="" style="shape=partialRectangle;connectable=0;fillColor=none;top=0;left=0;bottom=0;right=0;editable=1;overflow=hidden;whiteSpace=wrap;html=1;fontSize=16;" parent="eeY0Dyzwo5bHaXrm77ZO-11" vertex="1">
          <mxGeometry width="30" height="39" as="geometry">
            <mxRectangle width="30" height="39" as="alternateBounds" />
          </mxGeometry>
        </mxCell>
        <mxCell id="eeY0Dyzwo5bHaXrm77ZO-13" value="first_name" style="shape=partialRectangle;connectable=0;fillColor=none;top=0;left=0;bottom=0;right=0;align=left;spacingLeft=6;overflow=hidden;whiteSpace=wrap;html=1;fontSize=16;" parent="eeY0Dyzwo5bHaXrm77ZO-11" vertex="1">
          <mxGeometry x="30" width="200" height="39" as="geometry">
            <mxRectangle width="200" height="39" as="alternateBounds" />
          </mxGeometry>
        </mxCell>
        <mxCell id="eeY0Dyzwo5bHaXrm77ZO-14" style="shape=tableRow;horizontal=0;startSize=0;swimlaneHead=0;swimlaneBody=0;fillColor=none;collapsible=0;dropTarget=0;points=[[0,0.5],[1,0.5]];portConstraint=eastwest;top=0;left=0;right=0;bottom=0;fontSize=16;" parent="eeY0Dyzwo5bHaXrm77ZO-1" vertex="1">
          <mxGeometry y="196" width="230" height="39" as="geometry" />
        </mxCell>
        <mxCell id="eeY0Dyzwo5bHaXrm77ZO-15" style="shape=partialRectangle;connectable=0;fillColor=none;top=0;left=0;bottom=0;right=0;editable=1;overflow=hidden;whiteSpace=wrap;html=1;fontSize=16;" parent="eeY0Dyzwo5bHaXrm77ZO-14" vertex="1">
          <mxGeometry width="30" height="39" as="geometry">
            <mxRectangle width="30" height="39" as="alternateBounds" />
          </mxGeometry>
        </mxCell>
        <mxCell id="eeY0Dyzwo5bHaXrm77ZO-16" value="last_name" style="shape=partialRectangle;connectable=0;fillColor=none;top=0;left=0;bottom=0;right=0;align=left;spacingLeft=6;overflow=hidden;whiteSpace=wrap;html=1;fontSize=16;" parent="eeY0Dyzwo5bHaXrm77ZO-14" vertex="1">
          <mxGeometry x="30" width="200" height="39" as="geometry">
            <mxRectangle width="200" height="39" as="alternateBounds" />
          </mxGeometry>
        </mxCell>
        <mxCell id="eeY0Dyzwo5bHaXrm77ZO-17" style="shape=tableRow;horizontal=0;startSize=0;swimlaneHead=0;swimlaneBody=0;fillColor=none;collapsible=0;dropTarget=0;points=[[0,0.5],[1,0.5]];portConstraint=eastwest;top=0;left=0;right=0;bottom=0;fontSize=16;" parent="eeY0Dyzwo5bHaXrm77ZO-1" vertex="1">
          <mxGeometry y="235" width="230" height="39" as="geometry" />
        </mxCell>
        <mxCell id="eeY0Dyzwo5bHaXrm77ZO-18" style="shape=partialRectangle;connectable=0;fillColor=none;top=0;left=0;bottom=0;right=0;editable=1;overflow=hidden;whiteSpace=wrap;html=1;fontSize=16;" parent="eeY0Dyzwo5bHaXrm77ZO-17" vertex="1">
          <mxGeometry width="30" height="39" as="geometry">
            <mxRectangle width="30" height="39" as="alternateBounds" />
          </mxGeometry>
        </mxCell>
        <mxCell id="eeY0Dyzwo5bHaXrm77ZO-19" value="country" style="shape=partialRectangle;connectable=0;fillColor=none;top=0;left=0;bottom=0;right=0;align=left;spacingLeft=6;overflow=hidden;whiteSpace=wrap;html=1;fontSize=16;" parent="eeY0Dyzwo5bHaXrm77ZO-17" vertex="1">
          <mxGeometry x="30" width="200" height="39" as="geometry">
            <mxRectangle width="200" height="39" as="alternateBounds" />
          </mxGeometry>
        </mxCell>
        <mxCell id="eeY0Dyzwo5bHaXrm77ZO-20" style="shape=tableRow;horizontal=0;startSize=0;swimlaneHead=0;swimlaneBody=0;fillColor=none;collapsible=0;dropTarget=0;points=[[0,0.5],[1,0.5]];portConstraint=eastwest;top=0;left=0;right=0;bottom=0;fontSize=16;" parent="eeY0Dyzwo5bHaXrm77ZO-1" vertex="1">
          <mxGeometry y="274" width="230" height="39" as="geometry" />
        </mxCell>
        <mxCell id="eeY0Dyzwo5bHaXrm77ZO-21" style="shape=partialRectangle;connectable=0;fillColor=none;top=0;left=0;bottom=0;right=0;editable=1;overflow=hidden;whiteSpace=wrap;html=1;fontSize=16;" parent="eeY0Dyzwo5bHaXrm77ZO-20" vertex="1">
          <mxGeometry width="30" height="39" as="geometry">
            <mxRectangle width="30" height="39" as="alternateBounds" />
          </mxGeometry>
        </mxCell>
        <mxCell id="eeY0Dyzwo5bHaXrm77ZO-22" value="marital_status" style="shape=partialRectangle;connectable=0;fillColor=none;top=0;left=0;bottom=0;right=0;align=left;spacingLeft=6;overflow=hidden;whiteSpace=wrap;html=1;fontSize=16;" parent="eeY0Dyzwo5bHaXrm77ZO-20" vertex="1">
          <mxGeometry x="30" width="200" height="39" as="geometry">
            <mxRectangle width="200" height="39" as="alternateBounds" />
          </mxGeometry>
        </mxCell>
        <mxCell id="eeY0Dyzwo5bHaXrm77ZO-24" style="shape=tableRow;horizontal=0;startSize=0;swimlaneHead=0;swimlaneBody=0;fillColor=none;collapsible=0;dropTarget=0;points=[[0,0.5],[1,0.5]];portConstraint=eastwest;top=0;left=0;right=0;bottom=0;fontSize=16;" parent="eeY0Dyzwo5bHaXrm77ZO-1" vertex="1">
          <mxGeometry y="313" width="230" height="39" as="geometry" />
        </mxCell>
        <mxCell id="eeY0Dyzwo5bHaXrm77ZO-25" style="shape=partialRectangle;connectable=0;fillColor=none;top=0;left=0;bottom=0;right=0;editable=1;overflow=hidden;whiteSpace=wrap;html=1;fontSize=16;" parent="eeY0Dyzwo5bHaXrm77ZO-24" vertex="1">
          <mxGeometry width="30" height="39" as="geometry">
            <mxRectangle width="30" height="39" as="alternateBounds" />
          </mxGeometry>
        </mxCell>
        <mxCell id="eeY0Dyzwo5bHaXrm77ZO-26" value="gender" style="shape=partialRectangle;connectable=0;fillColor=none;top=0;left=0;bottom=0;right=0;align=left;spacingLeft=6;overflow=hidden;whiteSpace=wrap;html=1;fontSize=16;" parent="eeY0Dyzwo5bHaXrm77ZO-24" vertex="1">
          <mxGeometry x="30" width="200" height="39" as="geometry">
            <mxRectangle width="200" height="39" as="alternateBounds" />
          </mxGeometry>
        </mxCell>
        <mxCell id="eeY0Dyzwo5bHaXrm77ZO-27" style="shape=tableRow;horizontal=0;startSize=0;swimlaneHead=0;swimlaneBody=0;fillColor=none;collapsible=0;dropTarget=0;points=[[0,0.5],[1,0.5]];portConstraint=eastwest;top=0;left=0;right=0;bottom=0;fontSize=16;" parent="eeY0Dyzwo5bHaXrm77ZO-1" vertex="1">
          <mxGeometry y="352" width="230" height="39" as="geometry" />
        </mxCell>
        <mxCell id="eeY0Dyzwo5bHaXrm77ZO-28" style="shape=partialRectangle;connectable=0;fillColor=none;top=0;left=0;bottom=0;right=0;editable=1;overflow=hidden;whiteSpace=wrap;html=1;fontSize=16;" parent="eeY0Dyzwo5bHaXrm77ZO-27" vertex="1">
          <mxGeometry width="30" height="39" as="geometry">
            <mxRectangle width="30" height="39" as="alternateBounds" />
          </mxGeometry>
        </mxCell>
        <mxCell id="eeY0Dyzwo5bHaXrm77ZO-29" value="birthdate" style="shape=partialRectangle;connectable=0;fillColor=none;top=0;left=0;bottom=0;right=0;align=left;spacingLeft=6;overflow=hidden;whiteSpace=wrap;html=1;fontSize=16;" parent="eeY0Dyzwo5bHaXrm77ZO-27" vertex="1">
          <mxGeometry x="30" width="200" height="39" as="geometry">
            <mxRectangle width="200" height="39" as="alternateBounds" />
          </mxGeometry>
        </mxCell>
        <mxCell id="eeY0Dyzwo5bHaXrm77ZO-30" style="shape=tableRow;horizontal=0;startSize=0;swimlaneHead=0;swimlaneBody=0;fillColor=none;collapsible=0;dropTarget=0;points=[[0,0.5],[1,0.5]];portConstraint=eastwest;top=0;left=0;right=0;bottom=0;fontSize=16;" parent="eeY0Dyzwo5bHaXrm77ZO-1" vertex="1">
          <mxGeometry y="391" width="230" height="39" as="geometry" />
        </mxCell>
        <mxCell id="eeY0Dyzwo5bHaXrm77ZO-31" style="shape=partialRectangle;connectable=0;fillColor=none;top=0;left=0;bottom=0;right=0;editable=1;overflow=hidden;whiteSpace=wrap;html=1;fontSize=16;" parent="eeY0Dyzwo5bHaXrm77ZO-30" vertex="1">
          <mxGeometry width="30" height="39" as="geometry">
            <mxRectangle width="30" height="39" as="alternateBounds" />
          </mxGeometry>
        </mxCell>
        <mxCell id="eeY0Dyzwo5bHaXrm77ZO-32" value="create_date" style="shape=partialRectangle;connectable=0;fillColor=none;top=0;left=0;bottom=0;right=0;align=left;spacingLeft=6;overflow=hidden;whiteSpace=wrap;html=1;fontSize=16;" parent="eeY0Dyzwo5bHaXrm77ZO-30" vertex="1">
          <mxGeometry x="30" width="200" height="39" as="geometry">
            <mxRectangle width="200" height="39" as="alternateBounds" />
          </mxGeometry>
        </mxCell>
        <mxCell id="eeY0Dyzwo5bHaXrm77ZO-33" value="gold.dim_products" style="shape=table;startSize=40;container=1;collapsible=1;childLayout=tableLayout;fixedRows=1;rowLines=0;fontStyle=1;align=center;resizeLast=1;html=1;fontSize=16;fillColor=#fff2cc;strokeColor=#d6b656;rounded=1;" parent="1" vertex="1">
          <mxGeometry x="1245" y="355" width="230" height="469" as="geometry" />
        </mxCell>
        <mxCell id="eeY0Dyzwo5bHaXrm77ZO-34" value="" style="shape=tableRow;horizontal=0;startSize=0;swimlaneHead=0;swimlaneBody=0;fillColor=none;collapsible=0;dropTarget=0;points=[[0,0.5],[1,0.5]];portConstraint=eastwest;top=0;left=0;right=0;bottom=1;fontSize=16;" parent="eeY0Dyzwo5bHaXrm77ZO-33" vertex="1">
          <mxGeometry y="40" width="230" height="39" as="geometry" />
        </mxCell>
        <mxCell id="eeY0Dyzwo5bHaXrm77ZO-35" value="PK" style="shape=partialRectangle;connectable=0;fillColor=none;top=0;left=0;bottom=0;right=0;fontStyle=1;overflow=hidden;whiteSpace=wrap;html=1;fontSize=16;" parent="eeY0Dyzwo5bHaXrm77ZO-34" vertex="1">
          <mxGeometry width="30" height="39" as="geometry">
            <mxRectangle width="30" height="39" as="alternateBounds" />
          </mxGeometry>
        </mxCell>
        <mxCell id="eeY0Dyzwo5bHaXrm77ZO-36" value="&lt;span style=&quot;background-color: rgb(200, 200, 200);&quot;&gt;product_key&lt;/span&gt;" style="shape=partialRectangle;connectable=0;fillColor=none;top=0;left=0;bottom=0;right=0;align=left;spacingLeft=6;fontStyle=5;overflow=hidden;whiteSpace=wrap;html=1;fontSize=16;" parent="eeY0Dyzwo5bHaXrm77ZO-34" vertex="1">
          <mxGeometry x="30" width="200" height="39" as="geometry">
            <mxRectangle width="200" height="39" as="alternateBounds" />
          </mxGeometry>
        </mxCell>
        <mxCell id="eeY0Dyzwo5bHaXrm77ZO-37" value="" style="shape=tableRow;horizontal=0;startSize=0;swimlaneHead=0;swimlaneBody=0;fillColor=none;collapsible=0;dropTarget=0;points=[[0,0.5],[1,0.5]];portConstraint=eastwest;top=0;left=0;right=0;bottom=0;fontSize=16;" parent="eeY0Dyzwo5bHaXrm77ZO-33" vertex="1">
          <mxGeometry y="79" width="230" height="39" as="geometry" />
        </mxCell>
        <mxCell id="eeY0Dyzwo5bHaXrm77ZO-38" value="" style="shape=partialRectangle;connectable=0;fillColor=none;top=0;left=0;bottom=0;right=0;editable=1;overflow=hidden;whiteSpace=wrap;html=1;fontSize=16;" parent="eeY0Dyzwo5bHaXrm77ZO-37" vertex="1">
          <mxGeometry width="30" height="39" as="geometry">
            <mxRectangle width="30" height="39" as="alternateBounds" />
          </mxGeometry>
        </mxCell>
        <mxCell id="eeY0Dyzwo5bHaXrm77ZO-39" value="product_id" style="shape=partialRectangle;connectable=0;fillColor=none;top=0;left=0;bottom=0;right=0;align=left;spacingLeft=6;overflow=hidden;whiteSpace=wrap;html=1;fontSize=16;" parent="eeY0Dyzwo5bHaXrm77ZO-37" vertex="1">
          <mxGeometry x="30" width="200" height="39" as="geometry">
            <mxRectangle width="200" height="39" as="alternateBounds" />
          </mxGeometry>
        </mxCell>
        <mxCell id="eeY0Dyzwo5bHaXrm77ZO-40" value="" style="shape=tableRow;horizontal=0;startSize=0;swimlaneHead=0;swimlaneBody=0;fillColor=none;collapsible=0;dropTarget=0;points=[[0,0.5],[1,0.5]];portConstraint=eastwest;top=0;left=0;right=0;bottom=0;fontSize=16;" parent="eeY0Dyzwo5bHaXrm77ZO-33" vertex="1">
          <mxGeometry y="118" width="230" height="39" as="geometry" />
        </mxCell>
        <mxCell id="eeY0Dyzwo5bHaXrm77ZO-41" value="" style="shape=partialRectangle;connectable=0;fillColor=none;top=0;left=0;bottom=0;right=0;editable=1;overflow=hidden;whiteSpace=wrap;html=1;fontSize=16;" parent="eeY0Dyzwo5bHaXrm77ZO-40" vertex="1">
          <mxGeometry width="30" height="39" as="geometry">
            <mxRectangle width="30" height="39" as="alternateBounds" />
          </mxGeometry>
        </mxCell>
        <mxCell id="eeY0Dyzwo5bHaXrm77ZO-42" value="product_number" style="shape=partialRectangle;connectable=0;fillColor=none;top=0;left=0;bottom=0;right=0;align=left;spacingLeft=6;overflow=hidden;whiteSpace=wrap;html=1;fontSize=16;" parent="eeY0Dyzwo5bHaXrm77ZO-40" vertex="1">
          <mxGeometry x="30" width="200" height="39" as="geometry">
            <mxRectangle width="200" height="39" as="alternateBounds" />
          </mxGeometry>
        </mxCell>
        <mxCell id="eeY0Dyzwo5bHaXrm77ZO-43" value="" style="shape=tableRow;horizontal=0;startSize=0;swimlaneHead=0;swimlaneBody=0;fillColor=none;collapsible=0;dropTarget=0;points=[[0,0.5],[1,0.5]];portConstraint=eastwest;top=0;left=0;right=0;bottom=0;fontSize=16;" parent="eeY0Dyzwo5bHaXrm77ZO-33" vertex="1">
          <mxGeometry y="157" width="230" height="39" as="geometry" />
        </mxCell>
        <mxCell id="eeY0Dyzwo5bHaXrm77ZO-44" value="" style="shape=partialRectangle;connectable=0;fillColor=none;top=0;left=0;bottom=0;right=0;editable=1;overflow=hidden;whiteSpace=wrap;html=1;fontSize=16;" parent="eeY0Dyzwo5bHaXrm77ZO-43" vertex="1">
          <mxGeometry width="30" height="39" as="geometry">
            <mxRectangle width="30" height="39" as="alternateBounds" />
          </mxGeometry>
        </mxCell>
        <mxCell id="eeY0Dyzwo5bHaXrm77ZO-45" value="product_name" style="shape=partialRectangle;connectable=0;fillColor=none;top=0;left=0;bottom=0;right=0;align=left;spacingLeft=6;overflow=hidden;whiteSpace=wrap;html=1;fontSize=16;" parent="eeY0Dyzwo5bHaXrm77ZO-43" vertex="1">
          <mxGeometry x="30" width="200" height="39" as="geometry">
            <mxRectangle width="200" height="39" as="alternateBounds" />
          </mxGeometry>
        </mxCell>
        <mxCell id="eeY0Dyzwo5bHaXrm77ZO-46" style="shape=tableRow;horizontal=0;startSize=0;swimlaneHead=0;swimlaneBody=0;fillColor=none;collapsible=0;dropTarget=0;points=[[0,0.5],[1,0.5]];portConstraint=eastwest;top=0;left=0;right=0;bottom=0;fontSize=16;" parent="eeY0Dyzwo5bHaXrm77ZO-33" vertex="1">
          <mxGeometry y="196" width="230" height="39" as="geometry" />
        </mxCell>
        <mxCell id="eeY0Dyzwo5bHaXrm77ZO-47" style="shape=partialRectangle;connectable=0;fillColor=none;top=0;left=0;bottom=0;right=0;editable=1;overflow=hidden;whiteSpace=wrap;html=1;fontSize=16;" parent="eeY0Dyzwo5bHaXrm77ZO-46" vertex="1">
          <mxGeometry width="30" height="39" as="geometry">
            <mxRectangle width="30" height="39" as="alternateBounds" />
          </mxGeometry>
        </mxCell>
        <mxCell id="eeY0Dyzwo5bHaXrm77ZO-48" value="category_id" style="shape=partialRectangle;connectable=0;fillColor=none;top=0;left=0;bottom=0;right=0;align=left;spacingLeft=6;overflow=hidden;whiteSpace=wrap;html=1;fontSize=16;" parent="eeY0Dyzwo5bHaXrm77ZO-46" vertex="1">
          <mxGeometry x="30" width="200" height="39" as="geometry">
            <mxRectangle width="200" height="39" as="alternateBounds" />
          </mxGeometry>
        </mxCell>
        <mxCell id="eeY0Dyzwo5bHaXrm77ZO-49" style="shape=tableRow;horizontal=0;startSize=0;swimlaneHead=0;swimlaneBody=0;fillColor=none;collapsible=0;dropTarget=0;points=[[0,0.5],[1,0.5]];portConstraint=eastwest;top=0;left=0;right=0;bottom=0;fontSize=16;" parent="eeY0Dyzwo5bHaXrm77ZO-33" vertex="1">
          <mxGeometry y="235" width="230" height="39" as="geometry" />
        </mxCell>
        <mxCell id="eeY0Dyzwo5bHaXrm77ZO-50" style="shape=partialRectangle;connectable=0;fillColor=none;top=0;left=0;bottom=0;right=0;editable=1;overflow=hidden;whiteSpace=wrap;html=1;fontSize=16;" parent="eeY0Dyzwo5bHaXrm77ZO-49" vertex="1">
          <mxGeometry width="30" height="39" as="geometry">
            <mxRectangle width="30" height="39" as="alternateBounds" />
          </mxGeometry>
        </mxCell>
        <mxCell id="eeY0Dyzwo5bHaXrm77ZO-51" value="category" style="shape=partialRectangle;connectable=0;fillColor=none;top=0;left=0;bottom=0;right=0;align=left;spacingLeft=6;overflow=hidden;whiteSpace=wrap;html=1;fontSize=16;" parent="eeY0Dyzwo5bHaXrm77ZO-49" vertex="1">
          <mxGeometry x="30" width="200" height="39" as="geometry">
            <mxRectangle width="200" height="39" as="alternateBounds" />
          </mxGeometry>
        </mxCell>
        <mxCell id="eeY0Dyzwo5bHaXrm77ZO-52" style="shape=tableRow;horizontal=0;startSize=0;swimlaneHead=0;swimlaneBody=0;fillColor=none;collapsible=0;dropTarget=0;points=[[0,0.5],[1,0.5]];portConstraint=eastwest;top=0;left=0;right=0;bottom=0;fontSize=16;" parent="eeY0Dyzwo5bHaXrm77ZO-33" vertex="1">
          <mxGeometry y="274" width="230" height="39" as="geometry" />
        </mxCell>
        <mxCell id="eeY0Dyzwo5bHaXrm77ZO-53" style="shape=partialRectangle;connectable=0;fillColor=none;top=0;left=0;bottom=0;right=0;editable=1;overflow=hidden;whiteSpace=wrap;html=1;fontSize=16;" parent="eeY0Dyzwo5bHaXrm77ZO-52" vertex="1">
          <mxGeometry width="30" height="39" as="geometry">
            <mxRectangle width="30" height="39" as="alternateBounds" />
          </mxGeometry>
        </mxCell>
        <mxCell id="eeY0Dyzwo5bHaXrm77ZO-54" value="subcategory" style="shape=partialRectangle;connectable=0;fillColor=none;top=0;left=0;bottom=0;right=0;align=left;spacingLeft=6;overflow=hidden;whiteSpace=wrap;html=1;fontSize=16;" parent="eeY0Dyzwo5bHaXrm77ZO-52" vertex="1">
          <mxGeometry x="30" width="200" height="39" as="geometry">
            <mxRectangle width="200" height="39" as="alternateBounds" />
          </mxGeometry>
        </mxCell>
        <mxCell id="eeY0Dyzwo5bHaXrm77ZO-55" style="shape=tableRow;horizontal=0;startSize=0;swimlaneHead=0;swimlaneBody=0;fillColor=none;collapsible=0;dropTarget=0;points=[[0,0.5],[1,0.5]];portConstraint=eastwest;top=0;left=0;right=0;bottom=0;fontSize=16;" parent="eeY0Dyzwo5bHaXrm77ZO-33" vertex="1">
          <mxGeometry y="313" width="230" height="39" as="geometry" />
        </mxCell>
        <mxCell id="eeY0Dyzwo5bHaXrm77ZO-56" style="shape=partialRectangle;connectable=0;fillColor=none;top=0;left=0;bottom=0;right=0;editable=1;overflow=hidden;whiteSpace=wrap;html=1;fontSize=16;" parent="eeY0Dyzwo5bHaXrm77ZO-55" vertex="1">
          <mxGeometry width="30" height="39" as="geometry">
            <mxRectangle width="30" height="39" as="alternateBounds" />
          </mxGeometry>
        </mxCell>
        <mxCell id="eeY0Dyzwo5bHaXrm77ZO-57" value="maintenance" style="shape=partialRectangle;connectable=0;fillColor=none;top=0;left=0;bottom=0;right=0;align=left;spacingLeft=6;overflow=hidden;whiteSpace=wrap;html=1;fontSize=16;" parent="eeY0Dyzwo5bHaXrm77ZO-55" vertex="1">
          <mxGeometry x="30" width="200" height="39" as="geometry">
            <mxRectangle width="200" height="39" as="alternateBounds" />
          </mxGeometry>
        </mxCell>
        <mxCell id="eeY0Dyzwo5bHaXrm77ZO-58" style="shape=tableRow;horizontal=0;startSize=0;swimlaneHead=0;swimlaneBody=0;fillColor=none;collapsible=0;dropTarget=0;points=[[0,0.5],[1,0.5]];portConstraint=eastwest;top=0;left=0;right=0;bottom=0;fontSize=16;" parent="eeY0Dyzwo5bHaXrm77ZO-33" vertex="1">
          <mxGeometry y="352" width="230" height="39" as="geometry" />
        </mxCell>
        <mxCell id="eeY0Dyzwo5bHaXrm77ZO-59" style="shape=partialRectangle;connectable=0;fillColor=none;top=0;left=0;bottom=0;right=0;editable=1;overflow=hidden;whiteSpace=wrap;html=1;fontSize=16;" parent="eeY0Dyzwo5bHaXrm77ZO-58" vertex="1">
          <mxGeometry width="30" height="39" as="geometry">
            <mxRectangle width="30" height="39" as="alternateBounds" />
          </mxGeometry>
        </mxCell>
        <mxCell id="eeY0Dyzwo5bHaXrm77ZO-60" value="product_cost" style="shape=partialRectangle;connectable=0;fillColor=none;top=0;left=0;bottom=0;right=0;align=left;spacingLeft=6;overflow=hidden;whiteSpace=wrap;html=1;fontSize=16;" parent="eeY0Dyzwo5bHaXrm77ZO-58" vertex="1">
          <mxGeometry x="30" width="200" height="39" as="geometry">
            <mxRectangle width="200" height="39" as="alternateBounds" />
          </mxGeometry>
        </mxCell>
        <mxCell id="eeY0Dyzwo5bHaXrm77ZO-61" style="shape=tableRow;horizontal=0;startSize=0;swimlaneHead=0;swimlaneBody=0;fillColor=none;collapsible=0;dropTarget=0;points=[[0,0.5],[1,0.5]];portConstraint=eastwest;top=0;left=0;right=0;bottom=0;fontSize=16;" parent="eeY0Dyzwo5bHaXrm77ZO-33" vertex="1">
          <mxGeometry y="391" width="230" height="39" as="geometry" />
        </mxCell>
        <mxCell id="eeY0Dyzwo5bHaXrm77ZO-62" style="shape=partialRectangle;connectable=0;fillColor=none;top=0;left=0;bottom=0;right=0;editable=1;overflow=hidden;whiteSpace=wrap;html=1;fontSize=16;" parent="eeY0Dyzwo5bHaXrm77ZO-61" vertex="1">
          <mxGeometry width="30" height="39" as="geometry">
            <mxRectangle width="30" height="39" as="alternateBounds" />
          </mxGeometry>
        </mxCell>
        <mxCell id="eeY0Dyzwo5bHaXrm77ZO-63" value="product_line" style="shape=partialRectangle;connectable=0;fillColor=none;top=0;left=0;bottom=0;right=0;align=left;spacingLeft=6;overflow=hidden;whiteSpace=wrap;html=1;fontSize=16;" parent="eeY0Dyzwo5bHaXrm77ZO-61" vertex="1">
          <mxGeometry x="30" width="200" height="39" as="geometry">
            <mxRectangle width="200" height="39" as="alternateBounds" />
          </mxGeometry>
        </mxCell>
        <mxCell id="eeY0Dyzwo5bHaXrm77ZO-64" style="shape=tableRow;horizontal=0;startSize=0;swimlaneHead=0;swimlaneBody=0;fillColor=none;collapsible=0;dropTarget=0;points=[[0,0.5],[1,0.5]];portConstraint=eastwest;top=0;left=0;right=0;bottom=0;fontSize=16;" parent="eeY0Dyzwo5bHaXrm77ZO-33" vertex="1">
          <mxGeometry y="430" width="230" height="39" as="geometry" />
        </mxCell>
        <mxCell id="eeY0Dyzwo5bHaXrm77ZO-65" style="shape=partialRectangle;connectable=0;fillColor=none;top=0;left=0;bottom=0;right=0;editable=1;overflow=hidden;whiteSpace=wrap;html=1;fontSize=16;" parent="eeY0Dyzwo5bHaXrm77ZO-64" vertex="1">
          <mxGeometry width="30" height="39" as="geometry">
            <mxRectangle width="30" height="39" as="alternateBounds" />
          </mxGeometry>
        </mxCell>
        <mxCell id="eeY0Dyzwo5bHaXrm77ZO-66" value="start_date" style="shape=partialRectangle;connectable=0;fillColor=none;top=0;left=0;bottom=0;right=0;align=left;spacingLeft=6;overflow=hidden;whiteSpace=wrap;html=1;fontSize=16;" parent="eeY0Dyzwo5bHaXrm77ZO-64" vertex="1">
          <mxGeometry x="30" width="200" height="39" as="geometry">
            <mxRectangle width="200" height="39" as="alternateBounds" />
          </mxGeometry>
        </mxCell>
        <mxCell id="eeY0Dyzwo5bHaXrm77ZO-67" value="gold.fact_sales" style="shape=table;startSize=40;container=1;collapsible=1;childLayout=tableLayout;fixedRows=1;rowLines=0;fontStyle=1;align=center;resizeLast=1;html=1;fontSize=16;fillColor=#dae8fc;strokeColor=#6c8ebf;rounded=1;" parent="1" vertex="1">
          <mxGeometry x="845" y="355" width="230" height="391" as="geometry" />
        </mxCell>
        <mxCell id="eeY0Dyzwo5bHaXrm77ZO-71" value="" style="shape=tableRow;horizontal=0;startSize=0;swimlaneHead=0;swimlaneBody=0;fillColor=none;collapsible=0;dropTarget=0;points=[[0,0.5],[1,0.5]];portConstraint=eastwest;top=0;left=0;right=0;bottom=0;fontSize=16;" parent="eeY0Dyzwo5bHaXrm77ZO-67" vertex="1">
          <mxGeometry y="40" width="230" height="39" as="geometry" />
        </mxCell>
        <mxCell id="eeY0Dyzwo5bHaXrm77ZO-72" value="" style="shape=partialRectangle;connectable=0;fillColor=none;top=0;left=0;bottom=0;right=0;editable=1;overflow=hidden;whiteSpace=wrap;html=1;fontSize=16;" parent="eeY0Dyzwo5bHaXrm77ZO-71" vertex="1">
          <mxGeometry width="40" height="39" as="geometry">
            <mxRectangle width="40" height="39" as="alternateBounds" />
          </mxGeometry>
        </mxCell>
        <mxCell id="eeY0Dyzwo5bHaXrm77ZO-73" value="order_numbber" style="shape=partialRectangle;connectable=0;fillColor=none;top=0;left=0;bottom=0;right=0;align=left;spacingLeft=6;overflow=hidden;whiteSpace=wrap;html=1;fontSize=16;" parent="eeY0Dyzwo5bHaXrm77ZO-71" vertex="1">
          <mxGeometry x="40" width="190" height="39" as="geometry">
            <mxRectangle width="190" height="39" as="alternateBounds" />
          </mxGeometry>
        </mxCell>
        <mxCell id="eeY0Dyzwo5bHaXrm77ZO-74" value="" style="shape=tableRow;horizontal=0;startSize=0;swimlaneHead=0;swimlaneBody=0;fillColor=none;collapsible=0;dropTarget=0;points=[[0,0.5],[1,0.5]];portConstraint=eastwest;top=0;left=0;right=0;bottom=0;fontSize=16;" parent="eeY0Dyzwo5bHaXrm77ZO-67" vertex="1">
          <mxGeometry y="79" width="230" height="39" as="geometry" />
        </mxCell>
        <mxCell id="eeY0Dyzwo5bHaXrm77ZO-75" value="&lt;b&gt;FK1&lt;/b&gt;" style="shape=partialRectangle;connectable=0;fillColor=none;top=0;left=0;bottom=0;right=0;editable=1;overflow=hidden;whiteSpace=wrap;html=1;fontSize=16;" parent="eeY0Dyzwo5bHaXrm77ZO-74" vertex="1">
          <mxGeometry width="40" height="39" as="geometry">
            <mxRectangle width="40" height="39" as="alternateBounds" />
          </mxGeometry>
        </mxCell>
        <mxCell id="eeY0Dyzwo5bHaXrm77ZO-76" value="&lt;span style=&quot;background-color: light-dark(rgb(198, 194, 194), rgb(237, 237, 237));&quot;&gt;product_key&lt;/span&gt;" style="shape=partialRectangle;connectable=0;fillColor=none;top=0;left=0;bottom=0;right=0;align=left;spacingLeft=6;overflow=hidden;whiteSpace=wrap;html=1;fontSize=16;" parent="eeY0Dyzwo5bHaXrm77ZO-74" vertex="1">
          <mxGeometry x="40" width="190" height="39" as="geometry">
            <mxRectangle width="190" height="39" as="alternateBounds" />
          </mxGeometry>
        </mxCell>
        <mxCell id="eeY0Dyzwo5bHaXrm77ZO-77" value="" style="shape=tableRow;horizontal=0;startSize=0;swimlaneHead=0;swimlaneBody=0;fillColor=none;collapsible=0;dropTarget=0;points=[[0,0.5],[1,0.5]];portConstraint=eastwest;top=0;left=0;right=0;bottom=0;fontSize=16;" parent="eeY0Dyzwo5bHaXrm77ZO-67" vertex="1">
          <mxGeometry y="118" width="230" height="39" as="geometry" />
        </mxCell>
        <mxCell id="eeY0Dyzwo5bHaXrm77ZO-78" value="&lt;b&gt;FK2&lt;/b&gt;" style="shape=partialRectangle;connectable=0;fillColor=none;top=0;left=0;bottom=0;right=0;editable=1;overflow=hidden;whiteSpace=wrap;html=1;fontSize=16;" parent="eeY0Dyzwo5bHaXrm77ZO-77" vertex="1">
          <mxGeometry width="40" height="39" as="geometry">
            <mxRectangle width="40" height="39" as="alternateBounds" />
          </mxGeometry>
        </mxCell>
        <mxCell id="eeY0Dyzwo5bHaXrm77ZO-79" value="&lt;span style=&quot;background-color: rgb(196, 196, 196);&quot;&gt;customer_key&lt;/span&gt;" style="shape=partialRectangle;connectable=0;fillColor=none;top=0;left=0;bottom=0;right=0;align=left;spacingLeft=6;overflow=hidden;whiteSpace=wrap;html=1;fontSize=16;" parent="eeY0Dyzwo5bHaXrm77ZO-77" vertex="1">
          <mxGeometry x="40" width="190" height="39" as="geometry">
            <mxRectangle width="190" height="39" as="alternateBounds" />
          </mxGeometry>
        </mxCell>
        <mxCell id="eeY0Dyzwo5bHaXrm77ZO-80" style="shape=tableRow;horizontal=0;startSize=0;swimlaneHead=0;swimlaneBody=0;fillColor=none;collapsible=0;dropTarget=0;points=[[0,0.5],[1,0.5]];portConstraint=eastwest;top=0;left=0;right=0;bottom=0;fontSize=16;" parent="eeY0Dyzwo5bHaXrm77ZO-67" vertex="1">
          <mxGeometry y="157" width="230" height="39" as="geometry" />
        </mxCell>
        <mxCell id="eeY0Dyzwo5bHaXrm77ZO-81" style="shape=partialRectangle;connectable=0;fillColor=none;top=0;left=0;bottom=0;right=0;editable=1;overflow=hidden;whiteSpace=wrap;html=1;fontSize=16;" parent="eeY0Dyzwo5bHaXrm77ZO-80" vertex="1">
          <mxGeometry width="40" height="39" as="geometry">
            <mxRectangle width="40" height="39" as="alternateBounds" />
          </mxGeometry>
        </mxCell>
        <mxCell id="eeY0Dyzwo5bHaXrm77ZO-82" value="order_date" style="shape=partialRectangle;connectable=0;fillColor=none;top=0;left=0;bottom=0;right=0;align=left;spacingLeft=6;overflow=hidden;whiteSpace=wrap;html=1;fontSize=16;" parent="eeY0Dyzwo5bHaXrm77ZO-80" vertex="1">
          <mxGeometry x="40" width="190" height="39" as="geometry">
            <mxRectangle width="190" height="39" as="alternateBounds" />
          </mxGeometry>
        </mxCell>
        <mxCell id="eeY0Dyzwo5bHaXrm77ZO-83" style="shape=tableRow;horizontal=0;startSize=0;swimlaneHead=0;swimlaneBody=0;fillColor=none;collapsible=0;dropTarget=0;points=[[0,0.5],[1,0.5]];portConstraint=eastwest;top=0;left=0;right=0;bottom=0;fontSize=16;" parent="eeY0Dyzwo5bHaXrm77ZO-67" vertex="1">
          <mxGeometry y="196" width="230" height="39" as="geometry" />
        </mxCell>
        <mxCell id="eeY0Dyzwo5bHaXrm77ZO-84" style="shape=partialRectangle;connectable=0;fillColor=none;top=0;left=0;bottom=0;right=0;editable=1;overflow=hidden;whiteSpace=wrap;html=1;fontSize=16;" parent="eeY0Dyzwo5bHaXrm77ZO-83" vertex="1">
          <mxGeometry width="40" height="39" as="geometry">
            <mxRectangle width="40" height="39" as="alternateBounds" />
          </mxGeometry>
        </mxCell>
        <mxCell id="eeY0Dyzwo5bHaXrm77ZO-85" value="shipping_date" style="shape=partialRectangle;connectable=0;fillColor=none;top=0;left=0;bottom=0;right=0;align=left;spacingLeft=6;overflow=hidden;whiteSpace=wrap;html=1;fontSize=16;" parent="eeY0Dyzwo5bHaXrm77ZO-83" vertex="1">
          <mxGeometry x="40" width="190" height="39" as="geometry">
            <mxRectangle width="190" height="39" as="alternateBounds" />
          </mxGeometry>
        </mxCell>
        <mxCell id="eeY0Dyzwo5bHaXrm77ZO-86" style="shape=tableRow;horizontal=0;startSize=0;swimlaneHead=0;swimlaneBody=0;fillColor=none;collapsible=0;dropTarget=0;points=[[0,0.5],[1,0.5]];portConstraint=eastwest;top=0;left=0;right=0;bottom=0;fontSize=16;" parent="eeY0Dyzwo5bHaXrm77ZO-67" vertex="1">
          <mxGeometry y="235" width="230" height="39" as="geometry" />
        </mxCell>
        <mxCell id="eeY0Dyzwo5bHaXrm77ZO-87" style="shape=partialRectangle;connectable=0;fillColor=none;top=0;left=0;bottom=0;right=0;editable=1;overflow=hidden;whiteSpace=wrap;html=1;fontSize=16;" parent="eeY0Dyzwo5bHaXrm77ZO-86" vertex="1">
          <mxGeometry width="40" height="39" as="geometry">
            <mxRectangle width="40" height="39" as="alternateBounds" />
          </mxGeometry>
        </mxCell>
        <mxCell id="eeY0Dyzwo5bHaXrm77ZO-88" value="due_date" style="shape=partialRectangle;connectable=0;fillColor=none;top=0;left=0;bottom=0;right=0;align=left;spacingLeft=6;overflow=hidden;whiteSpace=wrap;html=1;fontSize=16;" parent="eeY0Dyzwo5bHaXrm77ZO-86" vertex="1">
          <mxGeometry x="40" width="190" height="39" as="geometry">
            <mxRectangle width="190" height="39" as="alternateBounds" />
          </mxGeometry>
        </mxCell>
        <mxCell id="eeY0Dyzwo5bHaXrm77ZO-89" style="shape=tableRow;horizontal=0;startSize=0;swimlaneHead=0;swimlaneBody=0;fillColor=none;collapsible=0;dropTarget=0;points=[[0,0.5],[1,0.5]];portConstraint=eastwest;top=0;left=0;right=0;bottom=0;fontSize=16;" parent="eeY0Dyzwo5bHaXrm77ZO-67" vertex="1">
          <mxGeometry y="274" width="230" height="39" as="geometry" />
        </mxCell>
        <mxCell id="eeY0Dyzwo5bHaXrm77ZO-90" style="shape=partialRectangle;connectable=0;fillColor=none;top=0;left=0;bottom=0;right=0;editable=1;overflow=hidden;whiteSpace=wrap;html=1;fontSize=16;" parent="eeY0Dyzwo5bHaXrm77ZO-89" vertex="1">
          <mxGeometry width="40" height="39" as="geometry">
            <mxRectangle width="40" height="39" as="alternateBounds" />
          </mxGeometry>
        </mxCell>
        <mxCell id="eeY0Dyzwo5bHaXrm77ZO-91" value="sales_amount" style="shape=partialRectangle;connectable=0;fillColor=none;top=0;left=0;bottom=0;right=0;align=left;spacingLeft=6;overflow=hidden;whiteSpace=wrap;html=1;fontSize=16;" parent="eeY0Dyzwo5bHaXrm77ZO-89" vertex="1">
          <mxGeometry x="40" width="190" height="39" as="geometry">
            <mxRectangle width="190" height="39" as="alternateBounds" />
          </mxGeometry>
        </mxCell>
        <mxCell id="eeY0Dyzwo5bHaXrm77ZO-92" style="shape=tableRow;horizontal=0;startSize=0;swimlaneHead=0;swimlaneBody=0;fillColor=none;collapsible=0;dropTarget=0;points=[[0,0.5],[1,0.5]];portConstraint=eastwest;top=0;left=0;right=0;bottom=0;fontSize=16;" parent="eeY0Dyzwo5bHaXrm77ZO-67" vertex="1">
          <mxGeometry y="313" width="230" height="39" as="geometry" />
        </mxCell>
        <mxCell id="eeY0Dyzwo5bHaXrm77ZO-93" style="shape=partialRectangle;connectable=0;fillColor=none;top=0;left=0;bottom=0;right=0;editable=1;overflow=hidden;whiteSpace=wrap;html=1;fontSize=16;" parent="eeY0Dyzwo5bHaXrm77ZO-92" vertex="1">
          <mxGeometry width="40" height="39" as="geometry">
            <mxRectangle width="40" height="39" as="alternateBounds" />
          </mxGeometry>
        </mxCell>
        <mxCell id="eeY0Dyzwo5bHaXrm77ZO-94" value="quantity" style="shape=partialRectangle;connectable=0;fillColor=none;top=0;left=0;bottom=0;right=0;align=left;spacingLeft=6;overflow=hidden;whiteSpace=wrap;html=1;fontSize=16;" parent="eeY0Dyzwo5bHaXrm77ZO-92" vertex="1">
          <mxGeometry x="40" width="190" height="39" as="geometry">
            <mxRectangle width="190" height="39" as="alternateBounds" />
          </mxGeometry>
        </mxCell>
        <mxCell id="eeY0Dyzwo5bHaXrm77ZO-98" style="shape=tableRow;horizontal=0;startSize=0;swimlaneHead=0;swimlaneBody=0;fillColor=none;collapsible=0;dropTarget=0;points=[[0,0.5],[1,0.5]];portConstraint=eastwest;top=0;left=0;right=0;bottom=0;fontSize=16;" parent="eeY0Dyzwo5bHaXrm77ZO-67" vertex="1">
          <mxGeometry y="352" width="230" height="39" as="geometry" />
        </mxCell>
        <mxCell id="eeY0Dyzwo5bHaXrm77ZO-99" style="shape=partialRectangle;connectable=0;fillColor=none;top=0;left=0;bottom=0;right=0;editable=1;overflow=hidden;whiteSpace=wrap;html=1;fontSize=16;" parent="eeY0Dyzwo5bHaXrm77ZO-98" vertex="1">
          <mxGeometry width="40" height="39" as="geometry">
            <mxRectangle width="40" height="39" as="alternateBounds" />
          </mxGeometry>
        </mxCell>
        <mxCell id="eeY0Dyzwo5bHaXrm77ZO-100" value="price" style="shape=partialRectangle;connectable=0;fillColor=none;top=0;left=0;bottom=0;right=0;align=left;spacingLeft=6;overflow=hidden;whiteSpace=wrap;html=1;fontSize=16;" parent="eeY0Dyzwo5bHaXrm77ZO-98" vertex="1">
          <mxGeometry x="40" width="190" height="39" as="geometry">
            <mxRectangle width="190" height="39" as="alternateBounds" />
          </mxGeometry>
        </mxCell>
        <mxCell id="eeY0Dyzwo5bHaXrm77ZO-101" value="" style="edgeStyle=entityRelationEdgeStyle;fontSize=12;html=1;endArrow=ERzeroToMany;startArrow=ERmandOne;rounded=0;exitX=1;exitY=0.5;exitDx=0;exitDy=0;entryX=0.003;entryY=0.264;entryDx=0;entryDy=0;entryPerimeter=0;" parent="1" source="eeY0Dyzwo5bHaXrm77ZO-2" target="eeY0Dyzwo5bHaXrm77ZO-77" edge="1">
          <mxGeometry width="100" height="100" relative="1" as="geometry">
            <mxPoint x="725" y="545" as="sourcePoint" />
            <mxPoint x="825" y="445" as="targetPoint" />
          </mxGeometry>
        </mxCell>
        <mxCell id="eeY0Dyzwo5bHaXrm77ZO-102" value="" style="edgeStyle=entityRelationEdgeStyle;fontSize=12;html=1;endArrow=ERzeroToMany;startArrow=ERmandOne;rounded=0;exitX=0;exitY=0.5;exitDx=0;exitDy=0;entryX=1;entryY=0.5;entryDx=0;entryDy=0;" parent="1" source="eeY0Dyzwo5bHaXrm77ZO-34" target="eeY0Dyzwo5bHaXrm77ZO-74" edge="1">
          <mxGeometry width="100" height="100" relative="1" as="geometry">
            <mxPoint x="1095" y="575" as="sourcePoint" />
            <mxPoint x="1195" y="475" as="targetPoint" />
          </mxGeometry>
        </mxCell>
        <mxCell id="eeY0Dyzwo5bHaXrm77ZO-103" value="&lt;h1 style=&quot;margin-top: 0px;&quot;&gt;&lt;font style=&quot;font-size: 18px;&quot;&gt;&lt;u style=&quot;&quot;&gt;Sales Calculation&lt;/u&gt;&lt;/font&gt;&lt;/h1&gt;&lt;p&gt;&lt;font style=&quot;font-size: 16px;&quot;&gt;-Sales = Quantity * price&lt;/font&gt;&lt;/p&gt;" style="text;html=1;whiteSpace=wrap;overflow=hidden;rounded=0;fillColor=#C6D3E5;fillStyle=hatch;gradientColor=none;strokeColor=default;" parent="1" vertex="1">
          <mxGeometry x="985" y="775" width="180" height="80" as="geometry" />
        </mxCell>
        <mxCell id="eeY0Dyzwo5bHaXrm77ZO-104" value="" style="endArrow=none;dashed=1;html=1;dashPattern=1 3;strokeWidth=2;rounded=0;entryX=0;entryY=0.25;entryDx=0;entryDy=0;" parent="1" source="eeY0Dyzwo5bHaXrm77ZO-89" target="eeY0Dyzwo5bHaXrm77ZO-103" edge="1">
          <mxGeometry width="50" height="50" relative="1" as="geometry">
            <mxPoint x="915" y="825" as="sourcePoint" />
            <mxPoint x="965" y="775" as="targetPoint" />
          </mxGeometry>
        </mxCell>
        <mxCell id="PkIljQjVneWHHMNf3_Rl-2" value="&lt;h1 style=&quot;margin-top: 0px;&quot;&gt;&lt;span style=&quot;background-color: transparent; color: light-dark(rgb(0, 0, 0), rgb(255, 255, 255)); font-size: 18px;&quot;&gt;&lt;u&gt;Maintenance&lt;/u&gt;&lt;span style=&quot;font-weight: normal;&quot;&gt;&amp;nbsp;&amp;nbsp;&lt;/span&gt;&lt;/span&gt;&lt;/h1&gt;&lt;h1 style=&quot;margin-top: 0px;&quot;&gt;&lt;span style=&quot;font-weight: normal; background-color: transparent; color: light-dark(rgb(0, 0, 0), rgb(255, 255, 255));&quot;&gt;&lt;font style=&quot;font-size: 16px;&quot;&gt;-Yes&lt;/font&gt;&lt;/span&gt;&lt;/h1&gt;&lt;h1 style=&quot;margin-top: 0px;&quot;&gt;&lt;span style=&quot;font-weight: normal; background-color: transparent; color: light-dark(rgb(0, 0, 0), rgb(255, 255, 255));&quot;&gt;&lt;font style=&quot;font-size: 16px;&quot;&gt;-No&amp;nbsp; &lt;/font&gt;&lt;/span&gt;&lt;span style=&quot;font-weight: normal; background-color: transparent; color: light-dark(rgb(0, 0, 0), rgb(255, 255, 255)); font-size: 18px;&quot;&gt;&amp;nbsp; &amp;nbsp;&lt;/span&gt;&lt;/h1&gt;" style="text;html=1;whiteSpace=wrap;overflow=hidden;rounded=0;fillColor=#FFD966;fillStyle=hatch;strokeColor=#d6b656;spacing=0;spacingTop=-6;" vertex="1" parent="1">
          <mxGeometry x="1492" y="737" width="129" height="125" as="geometry" />
        </mxCell>
        <mxCell id="PkIljQjVneWHHMNf3_Rl-3" value="" style="endArrow=none;dashed=1;html=1;dashPattern=1 3;strokeWidth=2;rounded=0;entryX=0;entryY=0.25;entryDx=0;entryDy=0;exitX=1;exitY=0.5;exitDx=0;exitDy=0;" edge="1" parent="1" target="PkIljQjVneWHHMNf3_Rl-2" source="eeY0Dyzwo5bHaXrm77ZO-55">
          <mxGeometry width="50" height="50" relative="1" as="geometry">
            <mxPoint x="1470" y="630" as="sourcePoint" />
            <mxPoint x="1472" y="737" as="targetPoint" />
          </mxGeometry>
        </mxCell>
        <mxCell id="PkIljQjVneWHHMNf3_Rl-4" value="&lt;h1 style=&quot;margin-top: 0px;&quot;&gt;&lt;span style=&quot;font-size: 18px;&quot;&gt;&lt;u&gt;Marital_status&lt;/u&gt;&lt;/span&gt;&lt;/h1&gt;&lt;h1 style=&quot;margin-top: 0px;&quot;&gt;&lt;span style=&quot;font-weight: normal; background-color: transparent; color: light-dark(rgb(0, 0, 0), rgb(255, 255, 255));&quot;&gt;&lt;font style=&quot;font-size: 16px;&quot;&gt;-Married&lt;/font&gt;&lt;/span&gt;&lt;/h1&gt;&lt;h1 style=&quot;margin-top: 0px;&quot;&gt;&lt;span style=&quot;font-weight: normal; background-color: transparent; color: light-dark(rgb(0, 0, 0), rgb(255, 255, 255));&quot;&gt;&lt;font style=&quot;font-size: 16px;&quot;&gt;-single&lt;/font&gt;&lt;/span&gt;&lt;span style=&quot;font-weight: normal; background-color: transparent; color: light-dark(rgb(0, 0, 0), rgb(255, 255, 255)); font-size: 18px;&quot;&gt;&amp;nbsp; &amp;nbsp;&lt;/span&gt;&lt;/h1&gt;" style="text;html=1;whiteSpace=wrap;overflow=hidden;rounded=0;fillColor=#FFD966;fillStyle=hatch;strokeColor=#d6b656;spacing=0;spacingTop=-6;" vertex="1" parent="1">
          <mxGeometry x="310" y="710" width="129" height="125" as="geometry" />
        </mxCell>
        <mxCell id="PkIljQjVneWHHMNf3_Rl-5" value="" style="endArrow=none;dashed=1;html=1;dashPattern=1 3;strokeWidth=2;rounded=0;entryX=0.929;entryY=0.037;entryDx=0;entryDy=0;exitX=0;exitY=0.5;exitDx=0;exitDy=0;entryPerimeter=0;" edge="1" parent="1" target="PkIljQjVneWHHMNf3_Rl-4" source="eeY0Dyzwo5bHaXrm77ZO-20">
          <mxGeometry width="50" height="50" relative="1" as="geometry">
            <mxPoint x="210" y="680" as="sourcePoint" />
            <mxPoint x="290" y="710" as="targetPoint" />
          </mxGeometry>
        </mxCell>
        <mxCell id="PkIljQjVneWHHMNf3_Rl-6" value="Data Model" style="text;html=1;align=center;verticalAlign=middle;whiteSpace=wrap;rounded=0;fontSize=33;" vertex="1" parent="1">
          <mxGeometry x="833" y="220" width="255" height="50" as="geometry" />
        </mxCell>
      </root>
    </mxGraphModel>
  </diagram>
</mxfile>
